<svg width="100" height="70" viewBox="0 0 100 70" fill="none" xmlns="http://www.w3.org/2000/svg">
<path d="M92.5944 27.5381C87.4586 25.1306 80.5902 23.75 73.75 23.75H29.1136C28.3398 22.7258 27.4597 21.8784 26.5011 21.25H58.75C35.8058 16.523 34.2817 0 15.0005 0H15V20H12.5V0C8.35781 0 5 4.47719 5 10V20C1.37547 20 0 21.5675 0 23.75V30C0 32.1848 1.37797 33.75 5 33.75V36.25C1.37547 36.25 0 37.8175 0 40V46.25C0 48.4348 1.37797 50 5 50V60C5 65.5228 8.35781 70 12.5 70V50H15V70H15.0005C34.2817 70 35.8058 53.477 58.75 48.75H26.5009C27.4595 48.1216 28.3397 47.2742 29.1134 46.25H73.75C80.5902 46.25 87.4586 44.8694 92.5944 42.4619C97.2316 40.2883 100 37.4987 100 35C100 32.5013 97.2316 29.7117 92.5944 27.5381ZM76.25 41.25C75.9185 41.25 75.6005 41.1183 75.3661 40.8839C75.1317 40.6495 75 40.3315 75 40V30C75 29.6685 75.1317 29.3505 75.3661 29.1161C75.6005 28.8817 75.9185 28.75 76.25 28.75C81.2358 28.75 81.2409 41.25 76.25 41.25Z" fill="#5C48D3"/>
</svg>
